REM MD5 ccb5809af6f663b94ebe6cfc30768a2b
FILE "Mahjong Taikai II Special (Japan).bin" BINARY
  TRACK 01 MODE2/2352
    INDEX 01 00:00:00
  TRACK 02 AUDIO
    INDEX 00 11:07:69
    INDEX 01 11:09:69
  TRACK 03 AUDIO
    INDEX 00 43:08:02
    INDEX 01 43:10:02
REM LEADOUT 46:10:02
